<svg id="Layer_1" data-name="Layer 1" xmlns="http://www.w3.org/2000/svg" viewBox="0 0 790.68 532.52"><defs><style>.cls-1,.cls-2,.cls-3{fill:#fff;}.cls-1,.cls-3{stroke:#231f20;}.cls-1{stroke-width:0.09px;}.cls-3{font-size:134.91px;stroke-miterlimit:10;stroke-width:3px;font-family:SuperSmash4.1, "Super Smash 4.1";}.cls-4{font-size:66.05px;fill:#231f20;font-family:TimesNewRomanPSMT, Times New Roman;}</style></defs><path class="cls-1" d="M392,48.82,234.19,322.17q77-3,159.54-3.09,80.65,0,156.1,3.09Q470.93,185.49,392,48.82ZM322.34,204.55a72.42,72.42,0,0,1,23.2-37.2c.21,21.6,0,43.2.07,64.79-8.29-.07-16.58.14-24.87-.07A76.11,76.11,0,0,1,322.34,204.55Zm23.27,72.32a68.08,68.08,0,0,1-21.18-30.79h21.18C345.61,256.32,345.68,266.56,345.61,276.87Zm77.62,10a71.44,71.44,0,0,1-43.48,6.06c-.07-15.61,0-31.22,0-46.82,26.69,0,53.37-.07,80,.07A72.6,72.6,0,0,1,423.23,286.84Zm-43.48-54.7c0-27-.07-53.85,0-80.82a72,72,0,0,1,83.47,80.75C435.35,232.21,407.55,232.07,379.75,232.14Z"/><g id="layer1"><path id="path2908" class="cls-2" d="M292,185.72c3.35-20.53,22.94-9.54,16.08,6.07,20.94-6.33,21.63,18.39,2.85,15.35.78,19-14,12.78-16.43,6.43-7.61,12.5-19.32,20.48-40.35,18.22,8.75-5.48,12.61-11,16.07-16.43-16.25,10.29-32.29,14.92-47.86,6.43,12-3.43,17-7.73,18.21-12.5-21.84,10.19-39.37,9-51.78-5.72,15.06-1.34,25.31-4.66,28.93-10.71-46.14,8.83-48-4.83-56.07-15.36,28.61,2.71,32.38-3.11,38.21-8.21-53,7-55.64-15.31-63.93-34.29,17.42,9.23,34.68,13.85,51.43,5-63.33-9-55.23-33.92-61.07-55.71,28,28.08,41.93,20.53,52.5,19.28C146.36,95.21,124,78.4,122.72,41.43,158,76.6,167.8,68.79,178.43,67.5,141.4,51.31,120.18,30.3,129.5,0c8,15.27,25.82,27.84,60.72,35.71-1.82-7.5-4.69-15-.72-22.5,60.7,49.93,89-22.11,115,76.43,10,12.4-95.39,35.35-12.5,96.07Z"/></g><g id="layer1-2" data-name="layer1"><path id="path2908-2" data-name="path2908" class="cls-2" d="M492.16,185.71C575.05,125,469.64,102,479.66,89.64c26-98.54,54.31-26.5,115-76.43,4,7.5,1.11,15-.71,22.5,34.9-7.87,52.71-20.44,60.71-35.71,9.33,30.3-11.89,51.31-48.92,67.5,10.62,1.29,20.42,9.1,55.71-26.07-1.31,37-23.64,53.78-56.07,62.14,10.57,1.25,24.47,8.8,52.5-19.28C652,106.08,660.14,131,596.81,140c16.75,8.85,34,4.23,51.43-5-8.29,19-10.91,41.24-63.93,34.29,5.83,5.1,9.6,10.92,38.21,8.21-8,10.53-9.93,24.19-56.07,15.36,3.62,6,13.87,9.37,28.93,10.71-12.42,14.72-29.94,15.91-51.79,5.72,1.24,4.77,6.22,9.07,18.22,12.5-15.58,8.49-31.62,3.86-47.86-6.43,3.46,5.47,7.32,10.95,16.07,16.43-21,2.26-32.75-5.72-40.36-18.22-2.45,6.35-17.2,12.55-16.42-6.43-18.79,3-18.1-21.68,2.85-15.35-6.86-15.61,12.73-26.6,16.07-6.07Z"/></g><text class="cls-3" transform="translate(149.51 305.82)"><tspan xml:space="preserve">SM   SH</tspan></text><path class="cls-2" d="M41.22,334.16h1.31c5.69,0,12.5,2,20.42,5.83a14.51,14.51,0,0,0,2.86.71q2.81,0,4.19-4.44.36-2.1,1-2.1H72.1c.16,0,.35.24.59.72l-.06,28.71a1.87,1.87,0,0,1-.78,1.79l-1,0c-.55,0-1.09-1.47-1.6-4.48q-4.5-13.28-12.92-17.83a20,20,0,0,0-10.5-3c-8.33.05-15.2,5-20.62,15.16a71.94,71.94,0,0,0-4.86,26.35v1.88c0,18.16,3.59,30.72,10.81,37.42a18.07,18.07,0,0,0,12.92,3.57l2.27-.23c8.46-.88,16.5-6.95,24.11-17.85l.3,0c.16,0,.32.15.48.49,0,1.68,0,3.37,0,5.05s-2.78,5.19-8.31,10.32a36.61,36.61,0,0,1-20.57,9.14l-1.43.16c-11.4,1.29-21-1.7-28.87-9.39a44.82,44.82,0,0,1-9.41-16.47A62,62,0,0,1,0,387.81v-1.93C0,373,4.09,360.59,12.3,349.2,21.06,339,30.7,334.16,41.22,334.16Z"/><path class="cls-2" d="M85.36,334h31.72c.79,0,1.27.23,1.43.68,0,.4,0,.8,0,1.19s-1.81.92-5.44,1.52a3.66,3.66,0,0,0-2.4,3.72q0,17-.1,33.89,10.64-.43,21.26-.84,0-16.11.1-32.2,0-3.83-2.37-4.5a34.85,34.85,0,0,0-5.31-1.1l-.3-.5v-.68c0-.79.48-1.18,1.44-1.18h31.36c1.27,0,1.91.22,1.91.66s0,.76,0,1.14c0,.53-1.65.95-5,1.28q-3.35.86-3.36,3.29l-.24,70.48q0,6.38,1.24,6.27,0,.74,6.74,1.44l.47.63v1a.28.28,0,0,1-.3.32q-16.72,1.26-33.43,2.7c-.6.05-1-.14-1.14-.58,0-.27,0-.54,0-.81,0-1,1.17-1.61,3.52-2,2.87-.53,4.31-1.79,4.31-3.81a7.37,7.37,0,0,0,.19-2q0-17,.11-34.05-10.64.47-21.26,1,0,18.39-.11,36.78,0,2.72,4,3.18c2.55,0,3.82.28,3.82.86v1.32a1.17,1.17,0,0,1-1.13.78q-16.62,1.47-33.23,3.12-.48-.14-.48-1c0-1.16,1.18-1.86,3.53-2.08q5-1.25,5-5l.21-78.19c0-2.06-1.54-3.27-4.65-3.65-2.43-.16-3.64-.67-3.64-1.54v-.65A1.5,1.5,0,0,1,85.36,334Z"/><path class="cls-2" d="M214.2,334a4,4,0,0,1,4,2.93c15,38.36,24.8,61.8,29.35,71.88q1.31,2.31,5.49,3.25c2.35.39,3.56.73,3.64,1-.12,1-.34,1.53-.66,1.55q-18,.79-36,1.79c-.84.05-1.32-.13-1.44-.55v-.57c0-1,1.44-1.65,4.31-2,1.8-.4,2.7-1,2.7-1.8v-.45c-.51-2.08-2.46-7.5-5.86-16.35a1.36,1.36,0,0,0-.6-.09q-10.81.45-21.63.95c-.52.68-1.77,4.12-3.74,10.35-.26.89-.53,1.78-.79,2.67q0,5.34,10.2,6.46a1.12,1.12,0,0,1,1,1.17,1,1,0,0,1-1.08,1.17q-14.82.9-29.64,1.95c-.32-.1-.47-.41-.47-.92v-.66c0-.39,1.44-1,4.31-1.71a16.59,16.59,0,0,0,8.21-8.14q4.86-14.06,9.71-27.89c2.58-7.8,8-22.92,16.17-44.84C211.81,334.43,212.77,334,214.2,334Zm-5.72,30.09c-5.27,15.05-8.45,23.94-9.53,26.43q9.53-.41,19.06-.77-5.38-14.16-9.35-25.66Z"/><path class="cls-2" d="M263.6,334.19h45.52c6.41,0,12.73,2.45,19,7.3,4.69,4.65,7,9.53,7,14.68q0,13.44-5.95,18.67a38.89,38.89,0,0,1-7.54,5.22c0,1.67,4.05,8,12.17,18.89q4.65,7.38,10.51,9.13a30.75,30.75,0,0,0,9.94,1.76l.29.43v.7c0,.15-.16.3-.48.44q-7.65.54-11,.6l-4.49.08a44.26,44.26,0,0,1-18.06-3.72q-5.62-2.22-11.34-12.44l-8.58-14.55a11.77,11.77,0,0,0-5.79-3l-.78,0v.44q0,6.88.16,8.1-.19,4.35-.2,9.6c0,2,0,3.93,0,5.9a9.35,9.35,0,0,0,.18,1.59c-.12.11-.18.52-.19,1.22v1.32a3.27,3.27,0,0,0,2.57,3.45,36.59,36.59,0,0,1,6,1l.17.76v.55q0,.23-.66.63-19.17.57-38.34,1.36c-.76,0-1.14-.3-1.14-1,0-.93,1.38-1.53,4.14-1.79,3.55-.73,5.32-2,5.33-3.93l.18-66.66q0-3-5.78-4.17c-2.31-.37-3.46-.77-3.46-1.22v-.73C263,334.66,263.2,334.46,263.6,334.19Zm32.72,4.41h-2q0,15.27-.07,30.55,0,3.59,7,4.47l2.57,0q6.64-.1,9.59-10.1a29.22,29.22,0,0,0,1-7.62,19,19,0,0,0-7.62-15.63,13.9,13.9,0,0,0-5.25-1.75l-.3.11-1-.11a1.5,1.5,0,0,0-.6.11,1.58,1.58,0,0,0-.48-.11l-.66.12-.3-.11-.83.11c-.08,0-.12,0-.12-.11Z"/><path class="cls-2" d="M405.34,334a4,4,0,0,1,4,2.75c15.14,36.12,25,59.24,29.64,69.14.88,1.53,2.72,2.67,5.51,3.44,2.36.5,3.57.9,3.65,1.19-.11,1-.33,1.46-.65,1.46q-18-.3-36-.39c-.84,0-1.32-.2-1.44-.6v-.54c0-.94,1.44-1.47,4.31-1.6,1.8-.28,2.69-.79,2.69-1.55v-.43q-.78-3-5.93-15.71a1.5,1.5,0,0,0-.6-.11q-10.81,0-21.65,0-.78.92-3.71,9.41l-.78,2.43c0,3.28,3.41,5.44,10.23,6.52a1.13,1.13,0,0,1,1,1.13c0,.69-.36,1-1.08,1q-14.84,0-29.68.15-.48-.17-.48-.87v-.59c0-.36,1.44-.81,4.31-1.34a14.65,14.65,0,0,0,8.2-7q4.83-12.66,9.64-25.31,3.82-10.71,16-41.43C403,334.41,403.91,334,405.34,334Zm-5.61,28.08q-7.83,20.89-9.44,24.3,9.54,0,19.08,0-5.46-13.51-9.46-24.32Z"/><path class="cls-2" d="M495.18,334.14h1.32c5.69,0,12.5,1.61,20.44,4.9a16.81,16.81,0,0,0,2.87.61q2.81,0,4.17-3.72c.23-1.19.55-1.79.95-1.79h1.13c.16,0,.36.2.6.61q0,12.25.07,24.49c0,.79-.25,1.29-.77,1.5h-1q-.82,0-1.62-3.87-4.57-11.44-13-15.29A23.07,23.07,0,0,0,499.85,339c-8.32,0-15.18,3.95-20.58,11.85a45.13,45.13,0,0,0-4.8,20.59v1.48c0,14.25,3.67,24.41,10.95,30.56a23.88,23.88,0,0,0,13,4.32l2.27.07c8.49.26,16.54-3.78,24.13-12.29h.29c.16,0,.32.16.48.46,0,1.44,0,2.87,0,4.31s-2.76,4.13-8.29,7.79c-5.85,3.65-12.73,5.31-20.63,5.06l-1.43,0q-17.17-.54-29-10.72a39.42,39.42,0,0,1-9.47-13.56A38.55,38.55,0,0,1,454,375c0-.49,0-1,0-1.46,0-9.83,4.08-19.06,12.27-27.76C475,338.06,484.67,334.14,495.18,334.14Z"/><path class="cls-2" d="M537.89,334.14h72.46q.3.06.3.3,0,10.35.07,20.7c0,.55-.16.87-.47.94l-1.14,0c-.52-.17-1.42-2.49-2.71-6.94a17.16,17.16,0,0,0-8.82-9.36q-2.87-.94-9.56-1h-4.18q.13,35.89.25,71.79.79,3.63,3.24,3.78c0,.16,1.32.54,3.83,1.16l.48,1.08c-.12.73-.27,1.08-.47,1.07q-11.5-.71-23-1.34-.12,0-.12-.18l-.35.15-2.52-.14A.16.16,0,0,1,565,416l-.29.16-1.14-.06q-.18,0-.18-.18l-.3.15-1.13-.06q-.12,0-.12-.18l-.36.16-.78,0a1.38,1.38,0,0,1-.66-.2,1,1,0,0,1-.6.14v-.17l-.35.15a1.38,1.38,0,0,1-.66-.2l-.3.15-.3-.19a1.23,1.23,0,0,1-.66.14q-.72-.32-.78-.66v-1.2c0-.38,1-.69,3-.93v.17q4.77-.78,4.77-2.21l.3-.27q.15-9.54.13-15.26-.11-28.32-.19-56.66h-3.82q-12.68,0-15.82,5.27a21,21,0,0,0-4.57,10.79,2.12,2.12,0,0,1-1,.27h-.84c-.36,0-.62-.55-.78-1.64l-.06-19C537.63,334.23,537.73,334.14,537.89,334.14Z"/><path class="cls-2" d="M621.88,334.15H682c.83,0,1.36,2.66,1.57,8,1.43,10.17,2.14,16.46,2.15,18.83a2.22,2.22,0,0,1-1.61.59c-.24-.09-1.08-2.21-2.53-6.32q-4.75-10.7-12.82-14.72l-3.41-1.2-3.83-.2V339l-.29.12-3.05,0-1-.13a1.56,1.56,0,0,1-.77.12,9.2,9.2,0,0,1-1.44-.13l-1.13.12a1.76,1.76,0,0,1-.66-.12c-2.35,0-3.52.35-3.52,1.08q.06,17,.11,33.89c0,.17.22.4.66.7l1.62.06c6.84.26,11.3-1.43,13.35-5.13a35.81,35.81,0,0,0,5.11-9.87c.63-2.44,1.16-3.66,1.6-3.65h.12c1.07.19,1.61.43,1.61.72l.12,38.18c-.23,1.12-.77,1.65-1.61,1.59q-.89,0-2-4.49a48.23,48.23,0,0,0-5.46-9.73q-2.52-3.78-9.45-4.06a24.42,24.42,0,0,1-2.57-.29c-2,0-3,.22-3,.55q.06,17.1.11,34.19c0,1.72,1.29,3.07,3.84,4.09l5.79,1a6.75,6.75,0,0,1,1.43-.08l1.14.09c6,.49,10.66-.91,13.83-4.25a25,25,0,0,0,5.41-5.81,129.88,129.88,0,0,0,6.35-11.39l.36-.11,1,.06c.16,0,.36.24.6.68q-2.94,15.45-4.39,27.5a1.49,1.49,0,0,1-1.08.41q-30.72-2.83-61.49-5.05c-.75-.06-1.13-.4-1.13-1,0-1.07,1.07-1.53,3.22-1.38,3.58-.42,5.37-1.52,5.36-3.28q-.14-36.51-.26-73,0-2.94-4.13-3.86l-3.53-.84a.89.89,0,0,1-.78-.6v-1.14C621.4,334.47,621.56,334.31,621.88,334.15Z"/><path class="cls-2" d="M699.65,334.22h45.51c6.41,0,12.75,3,19,9.26,4.7,5.95,7.05,12.29,7.06,18.89,0,11.48-2,19.32-5.89,23.46a33.48,33.48,0,0,1-7.51,6c0,2.13,4.07,10.31,12.19,25.19,3.1,6.66,6.59,11.05,10.48,13.1a27.6,27.6,0,0,0,9.88,3.67l.3.6v.93q0,.29-.48.51-7.61-.39-11-.79l-4.46-.55c-5.87-.71-11.87-3.17-18-7.26-3.73-2.37-7.51-8-11.34-16.89q-4.31-9.43-8.62-18.68a12.42,12.42,0,0,0-5.79-4.1l-.78-.05c0,.18,0,.36,0,.53q0,8.31.19,9.78-.16,5.24-.15,11.55c0,2.37,0,4.74,0,7.11a14,14,0,0,0,.18,1.94,3.19,3.19,0,0,0-.17,1.44v1.6a4.6,4.6,0,0,0,2.57,4.51,33.2,33.2,0,0,1,6,2l.18,1c0,.22,0,.45,0,.67s-.22.4-.66.67q-19.1-2.1-38.21-3.95a1.17,1.17,0,0,1-1.14-1.33c0-1.07,1.37-1.56,4.11-1.48q5.31-.53,5.3-3.83-.09-38.82-.19-77.64c0-2.34-1.94-4-5.81-4.88-2.31-.44-3.47-.92-3.47-1.43v-.83C699.05,334.76,699.25,334.52,699.65,334.22Zm32.74,5.33h-2q0,18.4.07,36.81c0,2.88,2.34,4.83,7,5.89l2.57.14c4.41.25,7.59-3.66,9.53-11.82a43.94,43.94,0,0,0,.94-9.41c0-7.93-2.57-14.48-7.67-19.51-2.4-1.46-4.15-2.18-5.26-2.19l-.3.13-1-.14a1.26,1.26,0,0,0-.59.13,1.23,1.23,0,0,0-.48-.13l-.66.13-.3-.14-.83.13c-.08,0-.12,0-.12-.13Z"/><rect class="cls-2" x="142.38" y="436.45" width="485.56" height="96.07" rx="37.63"/><text class="cls-4" transform="translate(170.35 507.58)">CHALLENGES</text><path class="cls-1" d="M395.55,306.78"/><path class="cls-1" d="M390.57,317"/></svg>