<svg id="Layer_1" data-name="Layer 1" xmlns="http://www.w3.org/2000/svg" viewBox="0 0 512 512"><defs><style>.cls-1{fill:#fff;}.cls-2{fill:#1cb2aa;}</style></defs><path class="cls-1" d="M.09,510.75H500.67c10.08,0,10.09,0,10.09-10.09V.09c2.06.9.93,2.7.93,4,.09,20.78.07,41.56.07,62.34q0,220.41.09,440.84c0,3.74-.84,4.58-4.58,4.58q-251.34-.16-502.69-.16C3.12,511.68,1.2,512.83.09,510.75Z"/><path class="cls-2" d="M511.24,5c0-1.63.46-3.33-.48-4.88Q257.66.09,4.58,0C.84,0,0,.84,0,4.58Q.17,257.66.09,510.75c1.55.94,3.26.47,4.88.47q250.49,0,501,0c6,0,5.32.63,5.32-5.33Q511.27,255.44,511.24,5ZM248.43,418.54c0,6.86-.44,7.29-7.43,7.3q-24.69,0-49.37,0c-7.89,0-8,0-10.62-7.53Q147.94,324.5,115,230.65c-6.16-17.56-12-35.25-17.92-52.89-.32-.92-.71-1.82-1.21-3.09-1.39,1.56-.88,3.09-.82,4.41,3.62,78.75,1.54,157.55,2.12,236.32,0,2-.05,4-.09,6-.06,2.82-1.54,4.36-4.34,4.37q-22.18,0-44.38,0c-2.77,0-4.33-1.4-4.37-4.28,0-1.83-.08-3.66-.08-5.49V93.85c0-1,0-2,0-3,.1-6.22.64-6.83,6.94-6.85,18.12,0,36.24.11,54.35-.09,4.62,0,6.78,1.79,8.31,6,25.69,70.95,52,141.66,77,212.87,2.35,6.7,4.37,13.52,6.55,20.28-.45-29.14-1.53-58-1.52-86.91q0-72.8,0-145.61c0-5.89.67-6.53,6.71-6.55,12.8-.06,25.6,0,38.4,0,7.56,0,7.84.29,7.84,7.9q0,127.17,0,254.33Q248.45,382.38,248.43,418.54Zm233-51.51c-12.52,33.18-37.6,50.85-71.73,56.84a152.07,152.07,0,0,1-26.81,2c-28.76-.07-57.52,0-86.28,0-8.36,0-8.59-.24-8.59-8.78q0-81,0-162.07t0-162.07c0-8.79.15-8.93,8.93-8.93,29.26,0,58.51-.15,87.77.06,13.63.1,27.24,1,40.37,5.32,26.6,8.81,43.61,26.69,50.34,53.88,5.49,22.16,4.9,44.21-3.55,65.65-5.23,13.28-13.94,23.69-26.63,30.56-1.11.6-2.82.83-2.85,2.45,0,1.39,1.48,1.65,2.48,2.15,25.74,13,38.54,34.72,42.19,62.51C489.81,327.12,488.85,347.46,481.47,367Z"/><path class="cls-2" d="M390.06,269.25c-13.18-2.14-26.53-.74-39.8-.86-3.67,0-4.16,2.61-4.16,5.5q0,49.35,0,98.68c0,4.09,1.77,5.64,5.74,5.55,6-.15,12,0,17.94,0,5.32,0,10.64.09,15.95,0,21.86-.43,36.38-12.17,41.06-33.5a94.35,94.35,0,0,0,.34-39.59C422.81,284.27,411,272.65,390.06,269.25Z"/><path class="cls-2" d="M352.16,220.56c8.63-.2,17.27-.06,25.9-.05a71.34,71.34,0,0,0,20.63-3c11.37-3.4,18.33-11,21.12-22.4a73.14,73.14,0,0,0,1.56-26.21c-2.77-23.18-15.78-35.34-39.14-36.13-9.78-.33-19.59-.18-29.38-.15-6.17,0-6.73.62-6.76,7,0,12.28,0,24.57,0,36.86,0,12.62.11,25.24-.05,37.85C346,218.8,347.61,220.66,352.16,220.56Z"/></svg>